<mxfile host="app.diagrams.net" agent="Mozilla/5.0 (Windows NT 10.0; Win64; x64) AppleWebKit/537.36 (KHTML, like Gecko) Chrome/131.0.0.0 Safari/537.36 OPR/116.0.0.0" version="26.1.0">
  <diagram id="C5RBs43oDa-KdzZeNtuy" name="Page-1">
    <mxGraphModel dx="1008" dy="537" grid="1" gridSize="10" guides="1" tooltips="1" connect="1" arrows="1" fold="1" page="1" pageScale="1" pageWidth="827" pageHeight="1169" background="none" math="0" shadow="0">
      <root>
        <mxCell id="WIyWlLk6GJQsqaUBKTNV-0" />
        <mxCell id="WIyWlLk6GJQsqaUBKTNV-1" parent="WIyWlLk6GJQsqaUBKTNV-0" />
        <mxCell id="7DW8LOwoWRazO6WAwYFA-4" style="edgeStyle=orthogonalEdgeStyle;rounded=0;orthogonalLoop=1;jettySize=auto;html=1;exitX=1;exitY=0.5;exitDx=0;exitDy=0;" edge="1" parent="WIyWlLk6GJQsqaUBKTNV-1" source="7DW8LOwoWRazO6WAwYFA-44" target="7DW8LOwoWRazO6WAwYFA-2">
          <mxGeometry relative="1" as="geometry" />
        </mxCell>
        <mxCell id="7DW8LOwoWRazO6WAwYFA-1" value="Sirket" style="rounded=1;whiteSpace=wrap;html=1;absoluteArcSize=1;arcSize=14;strokeWidth=2;" vertex="1" parent="WIyWlLk6GJQsqaUBKTNV-1">
          <mxGeometry x="100" y="312" width="120" height="50" as="geometry" />
        </mxCell>
        <mxCell id="7DW8LOwoWRazO6WAwYFA-2" value="Sube" style="rounded=1;whiteSpace=wrap;html=1;absoluteArcSize=1;arcSize=14;strokeWidth=2;" vertex="1" parent="WIyWlLk6GJQsqaUBKTNV-1">
          <mxGeometry x="435" y="312" width="110" height="50" as="geometry" />
        </mxCell>
        <mxCell id="7DW8LOwoWRazO6WAwYFA-3" style="edgeStyle=orthogonalEdgeStyle;rounded=0;orthogonalLoop=1;jettySize=auto;html=1;exitX=1;exitY=1;exitDx=0;exitDy=0;" edge="1" parent="WIyWlLk6GJQsqaUBKTNV-1" source="7DW8LOwoWRazO6WAwYFA-2" target="7DW8LOwoWRazO6WAwYFA-2">
          <mxGeometry relative="1" as="geometry">
            <Array as="points">
              <mxPoint x="500" y="362" />
            </Array>
          </mxGeometry>
        </mxCell>
        <mxCell id="7DW8LOwoWRazO6WAwYFA-5" value="N" style="text;html=1;align=center;verticalAlign=middle;resizable=0;points=[];autosize=1;strokeColor=none;fillColor=none;" vertex="1" parent="WIyWlLk6GJQsqaUBKTNV-1">
          <mxGeometry x="410" y="310" width="30" height="30" as="geometry" />
        </mxCell>
        <mxCell id="7DW8LOwoWRazO6WAwYFA-6" value="1" style="text;html=1;align=center;verticalAlign=middle;resizable=0;points=[];autosize=1;strokeColor=none;fillColor=none;" vertex="1" parent="WIyWlLk6GJQsqaUBKTNV-1">
          <mxGeometry x="220" y="310" width="30" height="30" as="geometry" />
        </mxCell>
        <mxCell id="7DW8LOwoWRazO6WAwYFA-21" value="" style="edgeStyle=orthogonalEdgeStyle;rounded=0;orthogonalLoop=1;jettySize=auto;html=1;" edge="1" parent="WIyWlLk6GJQsqaUBKTNV-1" source="7DW8LOwoWRazO6WAwYFA-7" target="7DW8LOwoWRazO6WAwYFA-20">
          <mxGeometry relative="1" as="geometry" />
        </mxCell>
        <mxCell id="7DW8LOwoWRazO6WAwYFA-7" value="Calisan" style="rounded=1;whiteSpace=wrap;html=1;absoluteArcSize=1;arcSize=14;strokeWidth=2;" vertex="1" parent="WIyWlLk6GJQsqaUBKTNV-1">
          <mxGeometry x="445" y="495" width="120" height="60" as="geometry" />
        </mxCell>
        <mxCell id="7DW8LOwoWRazO6WAwYFA-8" style="edgeStyle=orthogonalEdgeStyle;rounded=0;orthogonalLoop=1;jettySize=auto;html=1;entryX=0.45;entryY=0.047;entryDx=0;entryDy=0;entryPerimeter=0;" edge="1" parent="WIyWlLk6GJQsqaUBKTNV-1" source="7DW8LOwoWRazO6WAwYFA-2" target="7DW8LOwoWRazO6WAwYFA-7">
          <mxGeometry relative="1" as="geometry">
            <Array as="points">
              <mxPoint x="494" y="392" />
              <mxPoint x="494" y="392" />
            </Array>
          </mxGeometry>
        </mxCell>
        <mxCell id="7DW8LOwoWRazO6WAwYFA-11" value="1" style="text;html=1;align=center;verticalAlign=middle;resizable=0;points=[];autosize=1;strokeColor=none;fillColor=none;" vertex="1" parent="WIyWlLk6GJQsqaUBKTNV-1">
          <mxGeometry x="495" y="360" width="30" height="30" as="geometry" />
        </mxCell>
        <mxCell id="7DW8LOwoWRazO6WAwYFA-12" value="N" style="text;html=1;align=center;verticalAlign=middle;resizable=0;points=[];autosize=1;strokeColor=none;fillColor=none;" vertex="1" parent="WIyWlLk6GJQsqaUBKTNV-1">
          <mxGeometry x="490" y="465" width="30" height="30" as="geometry" />
        </mxCell>
        <mxCell id="7DW8LOwoWRazO6WAwYFA-17" style="edgeStyle=orthogonalEdgeStyle;rounded=0;orthogonalLoop=1;jettySize=auto;html=1;entryX=-0.067;entryY=0.92;entryDx=0;entryDy=0;entryPerimeter=0;" edge="1" parent="WIyWlLk6GJQsqaUBKTNV-1" source="7DW8LOwoWRazO6WAwYFA-2">
          <mxGeometry relative="1" as="geometry">
            <mxPoint x="642.99" y="407.6" as="targetPoint" />
          </mxGeometry>
        </mxCell>
        <mxCell id="7DW8LOwoWRazO6WAwYFA-18" value="1" style="text;html=1;align=center;verticalAlign=middle;resizable=0;points=[];autosize=1;strokeColor=none;fillColor=none;" vertex="1" parent="WIyWlLk6GJQsqaUBKTNV-1">
          <mxGeometry x="560" y="310" width="30" height="30" as="geometry" />
        </mxCell>
        <mxCell id="7DW8LOwoWRazO6WAwYFA-20" value="Adi" style="strokeWidth=2;html=1;shape=mxgraph.flowchart.start_1;whiteSpace=wrap;" vertex="1" parent="WIyWlLk6GJQsqaUBKTNV-1">
          <mxGeometry x="465" y="603" width="80" height="40" as="geometry" />
        </mxCell>
        <mxCell id="7DW8LOwoWRazO6WAwYFA-65" style="edgeStyle=orthogonalEdgeStyle;rounded=0;orthogonalLoop=1;jettySize=auto;html=1;entryX=0;entryY=0.25;entryDx=0;entryDy=0;" edge="1" parent="WIyWlLk6GJQsqaUBKTNV-1" source="7DW8LOwoWRazO6WAwYFA-23" target="7DW8LOwoWRazO6WAwYFA-7">
          <mxGeometry relative="1" as="geometry">
            <Array as="points">
              <mxPoint x="445" y="518" />
            </Array>
          </mxGeometry>
        </mxCell>
        <mxCell id="7DW8LOwoWRazO6WAwYFA-23" value="Soyadi" style="strokeWidth=2;html=1;shape=mxgraph.flowchart.start_1;whiteSpace=wrap;" vertex="1" parent="WIyWlLk6GJQsqaUBKTNV-1">
          <mxGeometry x="280" y="498" width="90" height="40" as="geometry" />
        </mxCell>
        <mxCell id="7DW8LOwoWRazO6WAwYFA-42" style="edgeStyle=orthogonalEdgeStyle;rounded=0;orthogonalLoop=1;jettySize=auto;html=1;entryX=1;entryY=0.75;entryDx=0;entryDy=0;" edge="1" parent="WIyWlLk6GJQsqaUBKTNV-1" source="7DW8LOwoWRazO6WAwYFA-27" target="7DW8LOwoWRazO6WAwYFA-7">
          <mxGeometry relative="1" as="geometry" />
        </mxCell>
        <mxCell id="7DW8LOwoWRazO6WAwYFA-27" value="Maas" style="strokeWidth=2;html=1;shape=mxgraph.flowchart.start_1;whiteSpace=wrap;" vertex="1" parent="WIyWlLk6GJQsqaUBKTNV-1">
          <mxGeometry x="620" y="565" width="70" height="38" as="geometry" />
        </mxCell>
        <mxCell id="7DW8LOwoWRazO6WAwYFA-33" style="edgeStyle=orthogonalEdgeStyle;rounded=0;orthogonalLoop=1;jettySize=auto;html=1;entryX=0;entryY=0.75;entryDx=0;entryDy=0;" edge="1" parent="WIyWlLk6GJQsqaUBKTNV-1" source="7DW8LOwoWRazO6WAwYFA-32" target="7DW8LOwoWRazO6WAwYFA-7">
          <mxGeometry relative="1" as="geometry" />
        </mxCell>
        <mxCell id="7DW8LOwoWRazO6WAwYFA-32" value="Numara" style="strokeWidth=2;html=1;shape=mxgraph.flowchart.start_1;whiteSpace=wrap;" vertex="1" parent="WIyWlLk6GJQsqaUBKTNV-1">
          <mxGeometry x="235" y="543" width="80" height="50" as="geometry" />
        </mxCell>
        <mxCell id="7DW8LOwoWRazO6WAwYFA-34" value="Adres" style="strokeWidth=2;html=1;shape=mxgraph.flowchart.start_1;whiteSpace=wrap;" vertex="1" parent="WIyWlLk6GJQsqaUBKTNV-1">
          <mxGeometry x="545" y="633" width="75" height="40" as="geometry" />
        </mxCell>
        <mxCell id="7DW8LOwoWRazO6WAwYFA-40" style="edgeStyle=orthogonalEdgeStyle;rounded=0;orthogonalLoop=1;jettySize=auto;html=1;entryX=0.125;entryY=1;entryDx=0;entryDy=0;entryPerimeter=0;" edge="1" parent="WIyWlLk6GJQsqaUBKTNV-1" source="7DW8LOwoWRazO6WAwYFA-37" target="7DW8LOwoWRazO6WAwYFA-7">
          <mxGeometry relative="1" as="geometry">
            <Array as="points">
              <mxPoint x="430" y="623" />
              <mxPoint x="430" y="555" />
            </Array>
          </mxGeometry>
        </mxCell>
        <mxCell id="7DW8LOwoWRazO6WAwYFA-37" value="Gorevi" style="strokeWidth=2;html=1;shape=mxgraph.flowchart.start_1;whiteSpace=wrap;" vertex="1" parent="WIyWlLk6GJQsqaUBKTNV-1">
          <mxGeometry x="315" y="593" width="100" height="60" as="geometry" />
        </mxCell>
        <mxCell id="7DW8LOwoWRazO6WAwYFA-43" style="edgeStyle=orthogonalEdgeStyle;rounded=0;orthogonalLoop=1;jettySize=auto;html=1;entryX=0.882;entryY=0.957;entryDx=0;entryDy=0;entryPerimeter=0;" edge="1" parent="WIyWlLk6GJQsqaUBKTNV-1" source="7DW8LOwoWRazO6WAwYFA-34" target="7DW8LOwoWRazO6WAwYFA-7">
          <mxGeometry relative="1" as="geometry">
            <mxPoint x="550" y="560" as="targetPoint" />
          </mxGeometry>
        </mxCell>
        <mxCell id="7DW8LOwoWRazO6WAwYFA-45" value="" style="edgeStyle=orthogonalEdgeStyle;rounded=0;orthogonalLoop=1;jettySize=auto;html=1;exitX=1;exitY=0.5;exitDx=0;exitDy=0;" edge="1" parent="WIyWlLk6GJQsqaUBKTNV-1" source="7DW8LOwoWRazO6WAwYFA-1" target="7DW8LOwoWRazO6WAwYFA-44">
          <mxGeometry relative="1" as="geometry">
            <mxPoint x="220" y="337" as="sourcePoint" />
            <mxPoint x="440" y="337" as="targetPoint" />
          </mxGeometry>
        </mxCell>
        <mxCell id="7DW8LOwoWRazO6WAwYFA-44" value="Aittir" style="strokeWidth=2;html=1;shape=mxgraph.flowchart.decision;whiteSpace=wrap;" vertex="1" parent="WIyWlLk6GJQsqaUBKTNV-1">
          <mxGeometry x="280" y="290" width="90" height="97" as="geometry" />
        </mxCell>
        <mxCell id="7DW8LOwoWRazO6WAwYFA-48" value="Calisir" style="strokeWidth=2;html=1;shape=mxgraph.flowchart.decision;whiteSpace=wrap;" vertex="1" parent="WIyWlLk6GJQsqaUBKTNV-1">
          <mxGeometry x="455" y="390" width="80" height="80" as="geometry" />
        </mxCell>
        <mxCell id="7DW8LOwoWRazO6WAwYFA-50" style="edgeStyle=orthogonalEdgeStyle;rounded=0;orthogonalLoop=1;jettySize=auto;html=1;" edge="1" parent="WIyWlLk6GJQsqaUBKTNV-1" source="7DW8LOwoWRazO6WAwYFA-49">
          <mxGeometry relative="1" as="geometry">
            <mxPoint x="492.5" y="314.79998779296875" as="targetPoint" />
          </mxGeometry>
        </mxCell>
        <mxCell id="7DW8LOwoWRazO6WAwYFA-49" value="&lt;u&gt;SubeID&lt;/u&gt;" style="strokeWidth=2;html=1;shape=mxgraph.flowchart.start_1;whiteSpace=wrap;" vertex="1" parent="WIyWlLk6GJQsqaUBKTNV-1">
          <mxGeometry x="450" y="190" width="85" height="40" as="geometry" />
        </mxCell>
        <mxCell id="7DW8LOwoWRazO6WAwYFA-58" style="edgeStyle=orthogonalEdgeStyle;rounded=0;orthogonalLoop=1;jettySize=auto;html=1;" edge="1" parent="WIyWlLk6GJQsqaUBKTNV-1" source="7DW8LOwoWRazO6WAwYFA-51">
          <mxGeometry relative="1" as="geometry">
            <mxPoint x="530" y="310" as="targetPoint" />
          </mxGeometry>
        </mxCell>
        <mxCell id="7DW8LOwoWRazO6WAwYFA-51" value="SubeAdi" style="strokeWidth=2;html=1;shape=mxgraph.flowchart.start_1;whiteSpace=wrap;" vertex="1" parent="WIyWlLk6GJQsqaUBKTNV-1">
          <mxGeometry x="575" y="200" width="100" height="60" as="geometry" />
        </mxCell>
        <mxCell id="7DW8LOwoWRazO6WAwYFA-54" style="edgeStyle=orthogonalEdgeStyle;rounded=0;orthogonalLoop=1;jettySize=auto;html=1;entryX=-0.067;entryY=0.813;entryDx=0;entryDy=0;entryPerimeter=0;" edge="1" parent="WIyWlLk6GJQsqaUBKTNV-1" source="7DW8LOwoWRazO6WAwYFA-46">
          <mxGeometry relative="1" as="geometry">
            <mxPoint x="642.99" y="404.39" as="targetPoint" />
          </mxGeometry>
        </mxCell>
        <mxCell id="7DW8LOwoWRazO6WAwYFA-56" value="1" style="text;html=1;align=center;verticalAlign=middle;resizable=0;points=[];autosize=1;strokeColor=none;fillColor=none;" vertex="1" parent="WIyWlLk6GJQsqaUBKTNV-1">
          <mxGeometry x="575" y="498" width="30" height="30" as="geometry" />
        </mxCell>
        <mxCell id="7DW8LOwoWRazO6WAwYFA-57" value="" style="edgeStyle=orthogonalEdgeStyle;rounded=0;orthogonalLoop=1;jettySize=auto;html=1;entryX=0.5;entryY=1;entryDx=0;entryDy=0;entryPerimeter=0;" edge="1" parent="WIyWlLk6GJQsqaUBKTNV-1" source="7DW8LOwoWRazO6WAwYFA-7" target="7DW8LOwoWRazO6WAwYFA-46">
          <mxGeometry relative="1" as="geometry">
            <mxPoint x="565" y="525" as="sourcePoint" />
            <mxPoint x="642.99" y="404.39" as="targetPoint" />
          </mxGeometry>
        </mxCell>
        <mxCell id="7DW8LOwoWRazO6WAwYFA-46" value="Yonetir" style="strokeWidth=2;html=1;shape=mxgraph.flowchart.decision;whiteSpace=wrap;" vertex="1" parent="WIyWlLk6GJQsqaUBKTNV-1">
          <mxGeometry x="600" y="370" width="90" height="80" as="geometry" />
        </mxCell>
        <mxCell id="7DW8LOwoWRazO6WAwYFA-59" value="Adres" style="strokeWidth=2;html=1;shape=mxgraph.flowchart.start_1;whiteSpace=wrap;" vertex="1" parent="WIyWlLk6GJQsqaUBKTNV-1">
          <mxGeometry x="350" y="190" width="80" height="40" as="geometry" />
        </mxCell>
        <mxCell id="7DW8LOwoWRazO6WAwYFA-60" style="edgeStyle=orthogonalEdgeStyle;rounded=0;orthogonalLoop=1;jettySize=auto;html=1;entryX=1.067;entryY=-0.053;entryDx=0;entryDy=0;entryPerimeter=0;" edge="1" parent="WIyWlLk6GJQsqaUBKTNV-1" source="7DW8LOwoWRazO6WAwYFA-59" target="7DW8LOwoWRazO6WAwYFA-5">
          <mxGeometry relative="1" as="geometry" />
        </mxCell>
        <mxCell id="7DW8LOwoWRazO6WAwYFA-61" value="&lt;u&gt;YoneticiID&lt;/u&gt;" style="strokeWidth=2;html=1;shape=mxgraph.flowchart.start_1;whiteSpace=wrap;" vertex="1" parent="WIyWlLk6GJQsqaUBKTNV-1">
          <mxGeometry x="670" y="478" width="80" height="50" as="geometry" />
        </mxCell>
        <mxCell id="7DW8LOwoWRazO6WAwYFA-66" style="edgeStyle=orthogonalEdgeStyle;rounded=0;orthogonalLoop=1;jettySize=auto;html=1;entryX=0;entryY=0;entryDx=0;entryDy=0;" edge="1" parent="WIyWlLk6GJQsqaUBKTNV-1" source="7DW8LOwoWRazO6WAwYFA-63" target="7DW8LOwoWRazO6WAwYFA-7">
          <mxGeometry relative="1" as="geometry" />
        </mxCell>
        <mxCell id="7DW8LOwoWRazO6WAwYFA-63" value="CalisanID" style="strokeWidth=2;html=1;shape=mxgraph.flowchart.start_1;whiteSpace=wrap;" vertex="1" parent="WIyWlLk6GJQsqaUBKTNV-1">
          <mxGeometry x="330" y="420" width="80" height="50" as="geometry" />
        </mxCell>
        <mxCell id="7DW8LOwoWRazO6WAwYFA-68" style="edgeStyle=orthogonalEdgeStyle;rounded=0;orthogonalLoop=1;jettySize=auto;html=1;entryX=0.982;entryY=0.117;entryDx=0;entryDy=0;entryPerimeter=0;" edge="1" parent="WIyWlLk6GJQsqaUBKTNV-1" source="7DW8LOwoWRazO6WAwYFA-61" target="7DW8LOwoWRazO6WAwYFA-7">
          <mxGeometry relative="1" as="geometry" />
        </mxCell>
      </root>
    </mxGraphModel>
  </diagram>
</mxfile>
